<?xml version="1.0" encoding="utf-8"?>
<!-- Generator: Adobe Illustrator 19.2.1, SVG Export Plug-In . SVG Version: 6.00 Build 0)  -->
<svg version="1.1" id="layer" xmlns="http://www.w3.org/2000/svg" x="0px" y="0px"
     viewBox="0 200 652 450" style="enable-background:new 0 100 652 450;" xml:space="preserve">
<style type="text/css">
	.st0{fill:#2EA7E0;}
	.st1{fill:#514F46;}
	.st2{fill:#CCCBCB;}
</style>
    <path class="st0" d="M88.9,311.1c-12,0-18.2,6.9-18.2,6.9s-4.4-6.8-13-6.9c-4.9-0.1-9.4,0.7-15.2,4.9c-6.2,4.6-10.6,3.9-12.5,4
	l-9.2,60h16.3l7.6-53.1c3-4.3,8.4-4.5,8.4-4.5c6.8,0,6.8,6.1,6.1,10.6l-7.1,47h16.1l6.8-47.4l0.9-6c2.8-3.8,7.9-4.2,7.9-4.2
	c7.7,0,7.6,6.6,6.9,11.1L83.7,380h16.2l6.5-43.7C108.9,320.2,98.8,311.1,88.9,311.1"/>
    <polygon class="st0" points="237.7,380 221.4,380 231.5,314.9 247.5,314.9 "/>
    <path class="st1" d="M358.3,359.7c-2.7,18.6-17.4,21.7-26.6,21.8c-15.8,0.1-25.5-9.3-23.3-23.1l4-25.2c3-19.4,16.2-22.3,28.4-22.3
	c15.7,0,23.1,10,21.1,23.5L358.3,359.7z M338.7,322c-4.8,0-8.8,1.9-10,9.6l-4.2,27.2c-0.7,4.1,1.1,11.4,8,11.4c5.6,0,8.5-3,9.5-8.9
	l4.3-28.6C347.1,327.4,344.8,322,338.7,322"/>
    <path class="st1" d="M570.3,310.7c-4.2,0-9.5,1.1-16.3,5.1c-6.4,3.7-9.7,3.9-13.5,4.2l-9.1,60.1h16.2l6.4-42.8l1.5-9.1
	c3.3-4.2,9.6-5.2,9.6-5.2c7.4-0.7,8.6,5.9,7.7,11.8l-7,45.2h16.2l6.5-43.2C591,319.2,581.7,310.7,570.3,310.7"/>
    <path class="st0" d="M233,301c-0.2-5.3,3.5-9.2,8.2-9.2c4.9,0,8.3,3.6,8.6,8.5c0.2,5.4-3.3,9.2-8.7,9.2
	C236.4,309.6,233.3,306,233,301"/>
    <path class="st0" d="M141.2,311.1c-14.3,0-25.1,5.7-27.8,21.2l-3.4,21.9c-2.8,18.2,9.7,27.5,21.5,27.5c20,0,25.4-12.5,26.8-18.1
	h-12.6c-2.1,0-3.1,1.6-3.1,1.6c-1.2,2.4-3.6,5.1-8.3,5.1c-7.7,0-9.6-6.3-8.6-12.6l0.9-5.5h33.8l2-14.4
	C165.2,320.9,157.2,311.1,141.2,311.1 M147.6,334.5l-1,6.9h-18.2l1-7.7c0.9-6.8,4.3-11.3,10.2-11.3
	C146.9,322.4,148.4,328.3,147.6,334.5"/>
    <path class="st1" d="M450.7,311.1c-14.3,0-25.1,5.7-27.8,21.2l-3.4,21.9c-2.8,18.2,9.7,27.5,21.5,27.5c20,0,25.4-12.5,26.8-18.1
	h-12.6c-2.1,0-3.1,1.6-3.1,1.6c-1.2,2.4-3.6,5.1-8.3,5.1c-7.7,0-9.6-6.3-8.6-12.6l0.9-5.5H470l2-14.4
	C474.6,320.9,466.6,311.1,450.7,311.1 M457.1,334.5l-1,6.9h-18.1l1.1-7.7c0.9-6.8,4.3-11.3,10.2-11.3
	C456.3,322.4,457.8,328.3,457.1,334.5"/>
    <path class="st1" d="M396.4,310.9c-8.7,0-25,1.3-28.2,21.4l-3.6,23c-3.1,19.6,10.7,26.2,23,26.2c6.7,0,23.4-2.1,25.8-19.5l0.5-3.1
	l-12.6,0.4l-0.3,0c-2.9,0-2.9,1.3-3.2,2l-0.2,0.5l-0.3,1c-0.7,2-2,7.5-9,7.5c-5.7,0-9.2-4.3-8.1-12.2l4.2-26.6
	c0.8-5.5,4-9.3,9.9-9.3c3.4,0,9.2,2.1,8.1,9.9l0,0.2c-0.1,0.6-0.2,2.6,2.3,2.6h0.2h12.6l0.4-2.8
	C419.8,319.7,409.5,310.9,396.4,310.9"/>
    <path class="st1" d="M521.6,316.5c-3.8-3.1-8.6-5.1-14.3-5.4c-0.4,0-0.9-0.1-1.3-0.1c-14.5,0-24.1,7.3-26,19.6l-4,25.8
	c-2,12.6,1.1,23.3,13.9,24.9c12,1.5,19.4-7.5,19.4-7.5l0.6,1.3c0,0,1.6,4.8,7.3,4.8h6l8.4-55.1l0.7-4.6
	C530.4,320.3,525.6,319.8,521.6,316.5 M510.1,359.7c-1,6.1-4.8,10.4-10.1,10.4c-5.7,0-9.2-4.5-8.2-11.4l3.7-24.9
	c1.3-8.6,5.3-11.4,10.5-11.4l0.8,0v0c0,0,0.3,0,0.8,0.1l0.2,0c1.8,0.4,5.7,1.5,7.2,4.4L510.1,359.7z"/>
    <path class="st0" d="M306,321.4c-1.9-0.2-6.3-0.8-10.2-4.1c-3.8-3.1-8.8-5.9-14.6-6.2c-0.4,0-0.9-0.1-1.3-0.1
	c-14.5,0-24.1,7.3-26,19.6l-4,25.8c-2,12.6,1.1,23.3,13.9,24.9c12,1.5,19.4-7.5,19.4-7.5l0.6,1.3c0,0,1.6,4.8,7.3,4.8h6l8.4-55.1
	l0.5-3.4h0L306,321.4z M284,359.7c-1,6.1-4.8,10.4-10.1,10.4c-5.7,0-9.2-4.5-8.1-11.4l3.7-24.9c1.3-8.6,5.3-11.4,10.5-11.4l0.8,0
	h0.1c0.6,0.1,1.1,0.2,1.6,0.3c2,0.5,5.2,1.7,6.6,4.3L284,359.7z"/>
    <path class="st0" d="M210.1,292.1l-4.1,25.8c-1.1-0.8-9.3-8.4-21-6.4c-6.9,1.2-13.2,6.2-14.9,17.5l-3.8,27.5
	c-2.2,13.9,7.2,25.2,23,25.1c9.2-0.1,23.9-3.3,26.6-21.8l10.1-67.6H210.1z M199.2,361.3c-0.9,5.9-5,10.1-10.2,9.5
	c-5.5-0.7-8-5.3-7-11.9l3.8-26.5c0.9-6.1,4.8-10.1,10-9.9c3.8,0.2,8.1,3.6,8.6,5.9L199.2,361.3z"/>
    <path class="st0" d="M514.3,292.8l30.1-18.3l-15-9.6c-3-1.9-6.5-2.9-10-2.9c-4,0-8.1,1.3-11.8,3.8L466,293.5l12.4,8.3
	c3.3,2.1,6.6,3.1,10.1,3.1h0c4.1,0,8.4-1.4,13.1-4.2L514.3,292.8z"/>
    <path class="st1" d="M558,266.1c3.7-2.5,7.8-3.8,11.8-3.8c3.6,0,7,1,10,2.9l17.4,11.1l-31,15.9l-12.9,8.5c-4.7,2.8-8.9,4.2-13,4.2
	c-3.5,0-6.8-1-10.2-3.1l-6.9-4.8c-3.8-2.7-6.3-4.4-9.3-4L558,266.1z"/>
    <path class="st2" d="M593.8,274.1l-27.5,18.1c1.6,0,4.5,0.6,9.4,3.9l9.4,6c3.8,2.4,6.8,3,10.6,3c3,0,5.6-0.9,10.2-3.9l14.9-10
	L593.8,274.1z"/>
</svg>