<svg width="607" height="126" xmlns="http://www.w3.org/2000/svg">
 <style type="text/css">.st0{fill:#2EA7E0;}
	.st1{fill:#514F46;}
	.st2{fill:#CCCBCB;}</style>

 <g>
  <title>background</title>
  <rect fill="none" id="canvas_background" height="128" width="609" y="-1" x="-1"/>
 </g>
 <g>
  <title>Layer 1</title>
  <path id="svg_1" d="m72.9,53.1c-12,0 -18.2,6.9 -18.2,6.9s-4.4,-6.8 -13,-6.9c-4.9,-0.1 -9.4,0.7 -15.2,4.9c-6.2,4.6 -10.6,3.9 -12.5,4l-9.2,60l16.3,0l7.6,-53.1c3,-4.3 8.4,-4.5 8.4,-4.5c6.8,0 6.8,6.1 6.1,10.6l-7.1,47l16.1,0l6.8,-47.4l0.9,-6c2.8,-3.8 7.9,-4.2 7.9,-4.2c7.7,0 7.6,6.6 6.9,11.1l-7,46.5l16.2,0l6.5,-43.7c2.5,-16.1 -7.6,-25.2 -17.5,-25.2" class="st0"/>
  <polygon id="svg_2" points="221.6999969482422,122 205.39999389648438,122 215.5,56.899993896484375 231.5,56.899993896484375 " class="st0"/>
  <path id="svg_3" d="m342.3,101.7c-2.7,18.6 -17.4,21.7 -26.6,21.8c-15.8,0.1 -25.5,-9.3 -23.3,-23.1l4,-25.2c3,-19.4 16.2,-22.3 28.4,-22.3c15.7,0 23.1,10 21.1,23.5l-3.6,25.3zm-19.6,-37.7c-4.8,0 -8.8,1.9 -10,9.6l-4.2,27.2c-0.7,4.1 1.1,11.4 8,11.4c5.6,0 8.5,-3 9.5,-8.9l4.3,-28.6c0.8,-5.3 -1.5,-10.7 -7.6,-10.7" class="st1"/>
  <path id="svg_4" d="m554.3,52.7c-4.2,0 -9.5,1.1 -16.3,5.1c-6.4,3.7 -9.7,3.9 -13.5,4.2l-9.1,60.1l16.2,0l6.4,-42.8l1.5,-9.1c3.3,-4.2 9.6,-5.2 9.6,-5.2c7.4,-0.7 8.6,5.9 7.7,11.8l-7,45.2l16.2,0l6.5,-43.2c2.5,-17.6 -6.8,-26.1 -18.2,-26.1" class="st1"/>
  <path id="svg_5" d="m217,43c-0.2,-5.3 3.5,-9.2 8.2,-9.2c4.9,0 8.3,3.6 8.6,8.5c0.2,5.4 -3.3,9.2 -8.7,9.2c-4.7,0.1 -7.8,-3.5 -8.1,-8.5" class="st0"/>
  <path id="svg_6" d="m125.2,53.1c-14.3,0 -25.1,5.7 -27.8,21.2l-3.4,21.9c-2.8,18.2 9.7,27.5 21.5,27.5c20,0 25.4,-12.5 26.8,-18.1l-12.6,0c-2.1,0 -3.1,1.6 -3.1,1.6c-1.2,2.4 -3.6,5.1 -8.3,5.1c-7.7,0 -9.6,-6.3 -8.6,-12.6l0.9,-5.5l33.8,0l2,-14.4c2.8,-16.9 -5.2,-26.7 -21.2,-26.7m6.4,23.4l-1,6.9l-18.2,0l1,-7.7c0.9,-6.8 4.3,-11.3 10.2,-11.3c7.3,0 8.8,5.9 8,12.1" class="st0"/>
  <path id="svg_7" d="m434.7,53.1c-14.3,0 -25.1,5.7 -27.8,21.2l-3.4,21.9c-2.8,18.2 9.7,27.5 21.5,27.5c20,0 25.4,-12.5 26.8,-18.1l-12.6,0c-2.1,0 -3.1,1.6 -3.1,1.6c-1.2,2.4 -3.6,5.1 -8.3,5.1c-7.7,0 -9.6,-6.3 -8.6,-12.6l0.9,-5.5l33.9,0l2,-14.4c2.6,-16.9 -5.4,-26.7 -21.3,-26.7m6.4,23.4l-1,6.9l-18.1,0l1.1,-7.7c0.9,-6.8 4.3,-11.3 10.2,-11.3c7,0 8.5,5.9 7.8,12.1" class="st1"/>
  <path id="svg_8" d="m380.4,52.9c-8.7,0 -25,1.3 -28.2,21.4l-3.6,23c-3.1,19.6 10.7,26.2 23,26.2c6.7,0 23.4,-2.1 25.8,-19.5l0.5,-3.1l-12.6,0.4l-0.3,0c-2.9,0 -2.9,1.3 -3.2,2l-0.2,0.5l-0.3,1c-0.7,2 -2,7.5 -9,7.5c-5.7,0 -9.2,-4.3 -8.1,-12.2l4.2,-26.6c0.8,-5.5 4,-9.3 9.9,-9.3c3.4,0 9.2,2.1 8.1,9.9l0,0.2c-0.1,0.6 -0.2,2.6 2.3,2.6l0.2,0l12.6,0l0.4,-2.8c1.9,-12.4 -8.4,-21.2 -21.5,-21.2" class="st1"/>
  <path id="svg_9" d="m505.6,58.5c-3.8,-3.1 -8.6,-5.1 -14.3,-5.4c-0.4,0 -0.9,-0.1 -1.3,-0.1c-14.5,0 -24.1,7.3 -26,19.6l-4,25.8c-2,12.6 1.1,23.3 13.9,24.9c12,1.5 19.4,-7.5 19.4,-7.5l0.6,1.3c0,0 1.6,4.8 7.3,4.8l6,0l8.4,-55.1l0.7,-4.6c-1.9,0.1 -6.7,-0.4 -10.7,-3.7m-11.5,43.2c-1,6.1 -4.8,10.4 -10.1,10.4c-5.7,0 -9.2,-4.5 -8.2,-11.4l3.7,-24.9c1.3,-8.6 5.3,-11.4 10.5,-11.4l0.8,0l0,0c0,0 0.3,0 0.8,0.1l0.2,0c1.8,0.4 5.7,1.5 7.2,4.4l-4.9,32.8z" class="st1"/>
  <path id="svg_10" d="m290,63.4c-1.9,-0.2 -6.3,-0.8 -10.2,-4.1c-3.8,-3.1 -8.8,-5.9 -14.6,-6.2c-0.4,0 -0.9,-0.1 -1.3,-0.1c-14.5,0 -24.1,7.3 -26,19.6l-4,25.8c-2,12.6 1.1,23.3 13.9,24.9c12,1.5 19.4,-7.5 19.4,-7.5l0.6,1.3c0,0 1.6,4.8 7.3,4.8l6,0l8.4,-55.1l0.5,-3.4l0,0l0,0zm-22,38.3c-1,6.1 -4.8,10.4 -10.1,10.4c-5.7,0 -9.2,-4.5 -8.1,-11.4l3.7,-24.9c1.3,-8.6 5.3,-11.4 10.5,-11.4l0.8,0l0.1,0c0.6,0.1 1.1,0.2 1.6,0.3c2,0.5 5.2,1.7 6.6,4.3l-5.1,32.7z" class="st0"/>
  <path id="svg_11" d="m194.1,34.1l-4.1,25.8c-1.1,-0.8 -9.3,-8.4 -21,-6.4c-6.9,1.2 -13.2,6.2 -14.9,17.5l-3.8,27.5c-2.2,13.9 7.2,25.2 23,25.1c9.2,-0.1 23.9,-3.3 26.6,-21.8l10.1,-67.6l-15.9,0l0,-0.1zm-10.9,69.2c-0.9,5.9 -5,10.1 -10.2,9.5c-5.5,-0.7 -8,-5.3 -7,-11.9l3.8,-26.5c0.9,-6.1 4.8,-10.1 10,-9.9c3.8,0.2 8.1,3.6 8.6,5.9l-5.2,32.9z" class="st0"/>
  <path id="svg_12" d="m498.3,34.8l30.1,-18.3l-15,-9.6c-3,-1.9 -6.5,-2.9 -10,-2.9c-4,0 -8.1,1.3 -11.8,3.8l-41.6,27.7l12.4,8.3c3.3,2.1 6.6,3.1 10.1,3.1l0,0c4.1,0 8.4,-1.4 13.1,-4.2l12.7,-7.9z" class="st0"/>
  <path id="svg_13" d="m542,8.1c3.7,-2.5 7.8,-3.8 11.8,-3.8c3.6,0 7,1 10,2.9l17.4,11.1l-31,15.9l-12.9,8.5c-4.7,2.8 -8.9,4.2 -13,4.2c-3.5,0 -6.8,-1 -10.2,-3.1l-6.9,-4.8c-3.8,-2.7 -6.3,-4.4 -9.3,-4l44.1,-26.9z" class="st1"/>
  <path id="svg_14" d="m577.8,16.1l-27.5,18.1c1.6,0 4.5,0.6 9.4,3.9l9.4,6c3.8,2.4 6.8,3 10.6,3c3,0 5.6,-0.9 10.2,-3.9l14.9,-10l-27,-17.1z" class="st2"/>
 </g>
</svg>